<?xml version="1.0" encoding="utf-8"?>
<!-- Generator: Adobe Illustrator 16.0.0, SVG Export Plug-In . SVG Version: 6.00 Build 0)  -->
<!DOCTYPE svg PUBLIC "-//W3C//DTD SVG 1.1//EN" "http://www.w3.org/Graphics/SVG/1.1/DTD/svg11.dtd">
<svg version="1.1" id="icon" xmlns="http://www.w3.org/2000/svg" xmlns:xlink="http://www.w3.org/1999/xlink" x="0px" y="0px"
	 width="1560.027px" height="1629.149px" viewBox="-265.632 33.097 1560.027 1629.149"
	 enable-background="new -265.632 33.097 1560.027 1629.149" xml:space="preserve">
<rect display="none" fill="#C0107B" width="1024" height="1024"/>
<path fill="#FFFFFF" d="M510.874,33.097c-157.963,0-285.887,129.04-285.887,287.013c0,150.173,255.854,615.169,266.974,635.191
	l20.025,35.601l20.023-35.601c11.121-20.022,267.002-485.019,267.002-635.191C796.773,162.137,668.849,33.097,510.874,33.097z
	 M510.874,486.965c-94.551,0-172.438-77.865-172.438-172.421c0-94.556,77.888-172.432,172.438-172.432
	c94.562,0,172.423,77.875,172.423,172.432C683.297,409.101,605.438,486.965,510.874,486.965z"/>
<g>
	<path fill="#FFFFFF" d="M792.441,624.808l-10.149,24.591l-54.13,130.786l-11.06-24.178l-2.807-6.188H660v21.125h40.765
		l18.319,40.02l10.068,22.114l9.24-22.444l53.222-128.562l48.602,128.23l8.582,22.524l10.729-21.534l38.454-76.904l16.75,31.025
		l3.054,5.529h80.205v-21.125h-67.58l-23.436-43.319l-9.653-17.824l-9.077,18.153l-36.804,73.523l-49.511-130.625l-9.489-24.92
		L792.441,624.808L792.441,624.808z"/>
	<path fill="#FFFFFF" d="M229.562,624.808l-9.49,24.92l-49.511,130.625l-36.803-73.523l-9.077-18.153l-9.654,17.824l-23.435,43.319
		h-67.58v21.125h80.205l3.053-5.529l16.751-31.025l38.454,76.904l10.728,21.534l8.582-22.524l48.602-128.23l53.221,128.562
		l9.241,22.444l10.068-22.114l18.319-40.02H362V749.82h-54.297l-2.807,6.188l-11.059,24.178l-54.13-130.787l-10.149-24.59
		L229.562,624.808L229.562,624.808z"/>
</g>
<g>
	<path fill="#FFFFFF" d="M-140.427,1371.288h-32.917v-53.36h94.051v149.639c0,50.27-25.479,75.399-76.416,75.399h-33.506
		c-50.947,0-76.417-25.13-76.417-75.399v-262.158c0-50.259,25.469-75.399,76.417-75.399h32.918
		c50.552,0,75.828,24.939,75.828,74.818v65.54h-61.721v-62.06c0-15.85-7.843-23.778-23.513-23.778h-12.932
		c-16.073,0-24.1,7.929-24.1,23.778v256.359c0,15.859,8.027,23.78,24.1,23.78h14.108c16.064,0,24.1-7.921,24.1-23.78V1371.288z"/>
	<path fill="#FFFFFF" d="M20.043,1133.488v405.998h-62.896v-405.998H20.043z"/>
	<path fill="#FFFFFF" d="M182.274,1371.288h-32.918v-53.36h94.051v149.639c0,50.27-25.479,75.399-76.416,75.399h-33.506
		c-50.947,0-76.417-25.13-76.417-75.399v-262.158c0-50.259,25.469-75.399,76.417-75.399h32.917
		c50.553,0,75.829,24.939,75.829,74.818v65.54h-61.721v-62.06c0-15.85-7.844-23.778-23.513-23.778h-12.932
		c-16.073,0-24.101,7.929-24.101,23.778v256.359c0,15.859,8.027,23.78,24.101,23.78h14.107c16.064,0,24.101-7.921,24.101-23.78
		V1371.288z"/>
	<path fill="#FFFFFF" d="M497.927,1348.088c12.932,3.48,22.236,9.379,27.921,17.689c5.675,8.32,8.523,20.209,8.523,35.67v138.039
		h-62.897v-136.879c0-17.399-8.817-26.1-26.452-26.1h-28.215v162.979h-62.896v-405.998h103.456c50.938,0,76.416,25.139,76.416,75.4
		v76.559C533.783,1317.547,521.824,1338.428,497.927,1348.088z M470.887,1211.788c0-15.46-7.843-23.2-23.513-23.2h-30.566v133.979
		h28.215c17.239,0,25.864-8.311,25.864-24.939V1211.788z"/>
	<path fill="#FFFFFF" d="M701.305,1132.908l59.37,406.578h-62.31l-8.229-63.801h-65.248l-7.642,63.801h-58.194l58.782-406.578
		H701.305z M657.807,1217.589l-25.864,202.998h51.141L657.807,1217.589z"/>
	<path fill="#FFFFFF" d="M786.532,1539.486v-405.998h94.639c59.957,0,89.936,29.579,89.936,88.74v228.518
		c0,59.161-29.979,88.74-89.936,88.74H786.532z M849.429,1188.01v296.957h22.925c23.898,0,35.857-11.981,35.857-35.961v-225.037
		c0-23.97-11.959-35.959-35.857-35.959H849.429z"/>
	<path fill="#FFFFFF" d="M1071.031,1133.488v405.998h-62.896v-405.998H1071.031z"/>
	<path fill="#FFFFFF" d="M1294.396,1467.566c0,50.27-25.479,75.399-76.417,75.399h-33.505c-50.947,0-76.417-25.13-76.417-75.399
		v-262.158c0-50.259,25.47-75.399,76.417-75.399h33.505c50.938,0,76.417,25.141,76.417,75.399V1467.566z M1231.499,1208.308
		c0-15.85-7.844-23.778-23.514-23.778h-12.931c-16.074,0-24.102,7.929-24.102,23.778v256.359c0,15.859,8.027,23.78,24.102,23.78
		h12.931c15.67,0,23.514-7.921,23.514-23.78V1208.308z"/>
</g>
</svg>
