<?xml version="1.0" encoding="utf-8"?>
<!-- Generator: Adobe Illustrator 16.0.0, SVG Export Plug-In . SVG Version: 6.00 Build 0)  -->
<!DOCTYPE svg PUBLIC "-//W3C//DTD SVG 1.1//EN" "http://www.w3.org/Graphics/SVG/1.1/DTD/svg11.dtd">
<svg version="1.1" id="icon" xmlns="http://www.w3.org/2000/svg" xmlns:xlink="http://www.w3.org/1999/xlink" x="0px" y="0px"
	 width="1560.027px" height="1629.149px" viewBox="0 0 1560.027 1629.149" enable-background="new 0 0 1560.027 1629.149"
	 xml:space="preserve">
<rect display="none" fill="#C0107B" width="1024" height="1024"/>
<path fill="#FFFFFF" d="M776.505,33.097c-157.963,0-285.887,129.04-285.887,287.013c0,150.173,255.854,615.169,266.974,635.191
	l20.025,35.602l20.022-35.602c11.121-20.021,267.002-485.019,267.002-635.191C1062.404,162.137,934.479,33.097,776.505,33.097z
	 M776.505,486.965c-94.551,0-172.438-77.865-172.438-172.421c0-94.556,77.888-172.432,172.438-172.432
	c94.562,0,172.423,77.875,172.423,172.432C948.928,409.101,871.068,486.965,776.505,486.965z"/>
<g>
	<path fill="#FFFFFF" d="M1058.072,624.808l-10.149,24.592l-54.13,130.785l-11.061-24.178l-2.807-6.188h-54.295v21.125h40.765
		l18.319,40.02l10.068,22.115l9.239-22.445l53.223-128.562l48.602,128.229l8.582,22.525l10.729-21.535l38.453-76.904l16.75,31.025
		l3.055,5.529h80.205v-21.125h-67.58l-23.437-43.319l-9.652-17.824l-9.077,18.153l-36.805,73.522l-49.511-130.625l-9.489-24.92
		L1058.072,624.808L1058.072,624.808z"/>
	<path fill="#FFFFFF" d="M495.193,624.808l-9.49,24.92l-49.511,130.625l-36.803-73.522l-9.077-18.153l-9.654,17.824l-23.435,43.319
		h-67.58v21.125h80.205l3.053-5.529l16.751-31.025l38.454,76.904l10.728,21.534l8.582-22.524l48.602-128.229l53.221,128.562
		l9.241,22.444l10.068-22.114l18.319-40.02h40.764V749.82h-54.297l-2.807,6.188l-11.059,24.178l-54.13-130.786l-10.149-24.591
		L495.193,624.808L495.193,624.808z"/>
</g>
<g>
	<path fill="#FFFFFF" d="M125.204,1371.288H92.287v-53.359h94.051v149.639c0,50.27-25.479,75.398-76.416,75.398H76.416
		c-50.947,0-76.417-25.129-76.417-75.398v-262.158c0-50.258,25.469-75.398,76.417-75.398h32.918
		c50.552,0,75.828,24.939,75.828,74.818v65.539h-61.721v-62.061c0-15.85-7.843-23.777-23.513-23.777H86.996
		c-16.073,0-24.1,7.93-24.1,23.777v256.359c0,15.859,8.027,23.781,24.1,23.781h14.108c16.064,0,24.1-7.922,24.1-23.781V1371.288z"/>
	<path fill="#FFFFFF" d="M285.674,1133.489v405.998h-62.896v-405.998H285.674z"/>
	<path fill="#FFFFFF" d="M447.905,1371.288h-32.918v-53.359h94.051v149.639c0,50.27-25.479,75.398-76.416,75.398h-33.506
		c-50.947,0-76.417-25.129-76.417-75.398v-262.158c0-50.258,25.469-75.398,76.417-75.398h32.917
		c50.553,0,75.829,24.939,75.829,74.818v65.539h-61.721v-62.061c0-15.85-7.844-23.777-23.513-23.777h-12.932
		c-16.073,0-24.101,7.93-24.101,23.777v256.359c0,15.859,8.027,23.781,24.101,23.781h14.107c16.064,0,24.101-7.922,24.101-23.781
		L447.905,1371.288L447.905,1371.288z"/>
	<path fill="#FFFFFF" d="M763.558,1348.088c12.933,3.48,22.236,9.379,27.921,17.689c5.676,8.318,8.523,20.209,8.523,35.67v138.039
		h-62.897v-136.879c0-17.4-8.816-26.102-26.451-26.102h-28.216v162.98h-62.896v-405.998h103.456
		c50.938,0,76.416,25.139,76.416,75.398v76.561C799.414,1317.547,787.455,1338.428,763.558,1348.088z M736.518,1211.788
		c0-15.459-7.843-23.199-23.513-23.199h-30.566v133.979h28.216c17.238,0,25.863-8.311,25.863-24.939V1211.788z"/>
	<path fill="#FFFFFF" d="M966.936,1132.909l59.37,406.578h-62.31l-8.229-63.803h-65.248l-7.642,63.803h-58.194l58.782-406.578
		H966.936z M923.438,1217.588l-25.863,202.998h51.141L923.438,1217.588z"/>
	<path fill="#FFFFFF" d="M1052.163,1539.487v-405.998h94.639c59.957,0,89.937,29.578,89.937,88.74v228.518
		c0,59.16-29.979,88.74-89.937,88.74H1052.163L1052.163,1539.487z M1115.06,1188.01v296.957h22.925
		c23.898,0,35.857-11.98,35.857-35.961v-225.037c0-23.971-11.959-35.959-35.857-35.959H1115.06L1115.06,1188.01z"/>
	<path fill="#FFFFFF" d="M1336.662,1133.489v405.998h-62.896v-405.998H1336.662z"/>
	<path fill="#FFFFFF" d="M1560.027,1467.567c0,50.27-25.479,75.398-76.418,75.398h-33.505c-50.946,0-76.417-25.131-76.417-75.398
		v-262.158c0-50.26,25.471-75.4,76.417-75.4h33.505c50.938,0,76.418,25.143,76.418,75.4V1467.567z M1497.13,1208.307
		c0-15.85-7.844-23.777-23.514-23.777h-12.932c-16.073,0-24.102,7.93-24.102,23.777v256.359c0,15.859,8.026,23.781,24.102,23.781
		h12.932c15.67,0,23.514-7.922,23.514-23.781V1208.307z"/>
</g>
</svg>
